<?xml version="1.0" encoding="UTF-8"?>
<!DOCTYPE svg PUBLIC "-//W3C//DTD SVG 1.1//EN" "http://www.w3.org/Graphics/SVG/1.1/DTD/svg11.dtd">
<!-- Creator: CorelDRAW X7 -->
<svg xmlns="http://www.w3.org/2000/svg" xml:space="preserve" width="19.9216mm" height="2.2866mm" version="1.1" style="shape-rendering:geometricPrecision; text-rendering:geometricPrecision; image-rendering:optimizeQuality; fill-rule:evenodd; clip-rule:evenodd"
viewBox="0 0 419 48"
 xmlns:xlink="http://www.w3.org/1999/xlink">
 <defs>
  <style type="text/css">
   <![CDATA[
    .fil0 {fill:#2196F3;fill-rule:nonzero}
    .fil1 {fill:#263238;fill-rule:nonzero;fill-opacity:0.200000}
    .fil2 {fill:white;fill-rule:nonzero;fill-opacity:0.200000}
   ]]>
  </style>
 </defs>
 <g id="Camada_x0020_1">
  <metadata id="CorelCorpID_0Corel-Layer"/>
  <path class="fil0" d="M29 29l-18 0 0 18 -11 0 0 -46 31 0 0 8 -20 0 0 11 18 0 0 9zm36 -1l-18 0 0 11 21 0 0 8 -32 0 0 -46 32 0 0 8 -21 0 0 10 18 0 0 9zm19 11l20 0 0 8 -31 0 0 -46 11 0 0 38zm36 8l-11 0 0 -46 11 0 0 46zm19 -16l0 16 -11 0 0 -46 19 0c3,0 7,0 9,2 3,1 5,3 7,5 1,3 2,5 2,8 0,5 -2,9 -5,11 -3,3 -8,4 -13,4l-8 0zm0 -8l8 0c2,0 4,-1 5,-2 1,-1 2,-2 2,-4 0,-3 -1,-4 -2,-6 -1,-1 -3,-2 -5,-2l-8 0 0 14zm61 5l-18 0 0 11 21 0 0 8 -32 0 0 -46 32 0 0 8 -21 0 0 10 18 0 0 9zm35 3l0 16 -11 0 0 -46 19 0c3,0 6,0 9,2 3,1 5,3 7,5 1,3 2,5 2,8 0,5 -2,9 -5,11 -3,3 -8,4 -13,4l-8 0zm0 -8l8 0c2,0 4,-1 5,-2 1,-1 1,-2 1,-4 0,-3 0,-4 -1,-6 -2,-1 -3,-2 -5,-2l-8 0 0 14zm44 24l-11 0 0 -46 11 0 0 46zm47 0l-12 0 -16 -29 0 29 -11 0 0 -46 11 0 16 29 0 -29 12 0 0 46zm46 0l-11 0 0 -19 -17 0 0 19 -11 0 0 -46 11 0 0 18 17 0 0 -18 11 0 0 46zm47 -22c0,5 -1,9 -3,12 -2,4 -4,6 -7,8 -3,2 -7,3 -11,3 -4,0 -7,-1 -10,-3 -4,-2 -6,-4 -8,-8 -1,-3 -2,-7 -2,-11l0 -3c0,-4 0,-9 2,-12 2,-4 4,-6 7,-8 4,-2 7,-3 11,-3 4,0 8,1 11,3 3,2 5,4 7,8 2,3 3,7 3,12l0 2zm-12 -2c0,-5 -1,-8 -2,-11 -2,-2 -4,-3 -7,-3 -6,0 -9,4 -9,13l0 3c0,5 1,8 2,11 2,2 4,3 7,3 3,0 5,-1 7,-3 1,-3 2,-6 2,-11l0 -2z"/>
  <path class="fil1" d="M29 29l-18 0 0 -1 18 0 0 1zm-18 17l0 1 -11 0 0 -1 11 0zm20 -38l0 1 -20 0 0 -1 20 0zm34 20l-18 0 0 -2 18 0 0 2zm3 18l0 1 -32 0 0 -1 32 0zm0 -38l0 1 -21 0 0 -1 21 0zm36 38l0 1 -31 0 0 -1 31 0zm16 1l-11 0 0 -1 11 0 0 1zm19 -1l0 1 -11 0 0 -1 11 0zm26 -30l0 0c0,5 -2,9 -5,11 -3,3 -8,4 -13,4l-8 0 0 -1 8 0c5,0 10,-1 13,-4 3,-2 5,-6 5,-10zm-12 0c0,-2 0,-3 -1,-5 -1,-1 -3,-2 -5,-2l-8 0 0 -1 8 0c2,0 4,1 5,2 1,1 2,3 2,5l-1 1zm47 12l-18 0 0 -2 18 0 0 2zm3 18l0 1 -32 0 0 -1 32 0zm0 -38l0 1 -21 0 0 -1 21 0zm32 38l0 1 -11 0 0 -1 11 0zm26 -30l0 0c0,5 -2,9 -5,11 -3,3 -8,4 -13,4l-8 0 0 -1 8 0c5,0 10,-1 13,-4 3,-2 5,-6 5,-10zm-12 0c0,-2 0,-3 -1,-5 -2,-1 -3,-2 -5,-2l-8 0 0 -1 8 0c2,0 3,1 5,2 1,1 1,3 1,5l0 1zm30 31l-11 0 0 -1 11 0 0 1zm47 0l-12 0 -16 -29 0 -1 16 29 12 0 0 1zm-28 -1l0 1 -11 0 0 -1 11 0zm74 1l-11 0 0 -1 11 0 0 1zm-11 -19l-17 0 0 -1 17 0 0 1zm-17 18l0 1 -11 0 0 -1 11 0zm75 -21c0,5 -1,9 -3,12 -2,4 -4,6 -7,8 -3,2 -7,3 -11,3 -4,0 -7,-1 -10,-3 -4,-2 -6,-4 -8,-8 -1,-3 -2,-7 -2,-11l0 -1c0,4 1,8 2,11 2,4 4,6 8,8 3,2 6,3 10,3 4,0 8,-1 11,-3 3,-2 5,-5 7,-8 2,-4 3,-8 3,-12l0 1zm-12 -2c0,-5 -1,-8 -2,-11 -2,-2 -4,-3 -7,-3 -6,0 -9,4 -9,13l0 2 0 0 0 -4c0,-8 3,-12 9,-12 3,0 5,1 7,3 1,3 2,6 2,11l0 1z"/>
  <path class="fil2" d="M0 3l0 -2 31 0 0 2 -31 0zm11 17l18 0 0 2 -18 0 0 -2zm36 19l21 0 0 2 -21 0 0 -2zm-11 -36l0 -2 32 0 0 2 -32 0zm11 16l18 0 0 3 -18 0 0 -3zm37 20l20 0 0 2 -20 0 0 -2zm-11 -36l0 -2 11 0 0 2 -11 0zm36 0l0 -2 11 0 0 2 -11 0zm19 0l0 -2 19 0c3,0 7,0 9,2 3,1 5,3 7,5 1,3 2,5 2,8 0,1 0,1 0,2 0,-3 -1,-5 -2,-7 -2,-3 -4,-5 -7,-6 -2,-1 -6,-2 -9,-2l-19 0zm11 20l8 0c2,0 4,-1 5,-2 1,-1 1,-2 1,-3 0,0 1,1 1,1 0,2 -1,3 -2,5 -1,1 -3,1 -5,1l-8 0 0 -2zm43 16l21 0 0 2 -21 0 0 -2zm-11 -36l0 -2 32 0 0 2 -32 0zm11 16l18 0 0 3 -18 0 0 -3zm42 -16l0 -2 19 0c3,0 6,0 9,2 3,1 5,3 7,5 1,3 2,5 2,8 0,1 0,1 0,2 0,-3 -1,-5 -2,-7 -2,-3 -4,-5 -7,-6 -3,-1 -6,-2 -9,-2l-19 0zm11 20l8 0c2,0 4,-1 5,-2 1,-1 1,-2 1,-3 0,0 0,1 0,1 0,2 0,3 -1,5 -1,1 -3,1 -5,1l-8 0 0 -2zm33 -20l0 -2 11 0 0 2 -11 0zm19 0l0 -2 11 0 16 29 0 2 -16 -29 -11 0zm27 0l0 -2 12 0 0 2 -12 0zm19 0l0 -2 11 0 0 2 -11 0zm11 16l17 0 0 3 -17 0 0 -3zm17 -16l0 -2 11 0 0 2 -11 0zm58 22l0 0c0,-4 -1,-8 -3,-12 -2,-3 -4,-6 -7,-8 -3,-2 -7,-3 -11,-3 -4,0 -7,1 -11,3 -3,2 -5,5 -7,8 -1,4 -2,8 -2,12l0 -2c0,-4 0,-9 2,-12 2,-4 4,-6 7,-8 4,-2 7,-3 11,-3 4,0 8,1 11,3 3,2 5,4 7,8 2,3 3,7 3,12l0 2zm-30 1c0,4 1,7 2,10 2,2 4,3 7,3 3,0 5,-1 7,-3 1,-3 2,-6 2,-11l0 0 0 3c0,4 -1,8 -2,10 -2,2 -4,4 -7,4 -3,0 -5,-2 -7,-4 -1,-3 -2,-6 -2,-11l0 -1z"/>
 </g>
</svg>
