<svg version="1.1" id="Layer_1" xmlns="http://www.w3.org/2000/svg" xmlns:xlink="http://www.w3.org/1999/xlink" x="0px" y="0px" viewBox="0 0 1920 1539.9" enable-background="new 0 0 1920 1539.9" xml:space="preserve"><g id="iMac_x5F_FRONT_x5F_FLAT"><g><path fill-rule="evenodd" clip-rule="evenodd" fill="#D2D3D4" d="M1920,1144.6v129.6c0,26.2-21.3,47.5-47.5,47.5H47.5c-26.2,0-47.5-21.3-47.5-47.5v-129.6H1920z"/><g><path fill="#010101" d="M1920,47.5c0-26.2-21.3-47.5-47.5-47.5H47.5C21.3,0,0,21.3,0,47.5v1097.1h1920V47.5z"/></g><path fill-rule="evenodd" clip-rule="evenodd" fill="#231F20" d="M77.5,75h1764.9v993H77.5V75z"/><path fill="#151517" d="M1844.9,1070.5H75v-998h1769.9V1070.5z M80,1065.5h1759.9v-988H80V1065.5z"/><g><path fill-rule="evenodd" clip-rule="evenodd" fill="#424143" d="M930,38.8c0.8,0,1.5,0.7,1.5,1.5c0,0.8-0.7,1.5-1.5,1.5c-0.8,0-1.5-0.7-1.5-1.5C928.5,39.5,929.2,38.8,930,38.8z"/><g><path fill-rule="evenodd" clip-rule="evenodd" fill="#424143" d="M960,32.8c4.1,0,7.5,3.4,7.5,7.5s-3.4,7.5-7.5,7.5c-4.1,0-7.5-3.4-7.5-7.5S955.8,32.8,960,32.8z"/><path fill-rule="evenodd" clip-rule="evenodd" fill="#818285" d="M960,37.2c1.7,0,3.1,1.4,3.1,3.1s-1.4,3.1-3.1,3.1c-1.7,0-3.1-1.4-3.1-3.1S958.3,37.2,960,37.2z"/></g></g><polygon fill-rule="evenodd" clip-rule="evenodd" fill="#E7E7E7" points="0,1144.6 0,1145 0,1145.3 1920,1145.3 1920,1145 1920,1144.6 "/><path fill-rule="evenodd" clip-rule="evenodd" fill="#BDBEC0" d="M1207.5,1534.3c-135.3,0-385.9,0-495.1,0c-43.6,0-44-3.5-44-3.5l58.9-15.7c0,0,14.6-4.5,20.7-15.9c9.4-17.6,11.9-44.8,11.9-44.8l9.5-132.7h381.1l9.5,132.7c0,0,2.5,27.2,11.9,44.8c6.2,11.5,20.7,15.9,20.7,15.9l58.9,15.7C1251.5,1530.8,1251.3,1534.3,1207.5,1534.3z"/><path fill-rule="evenodd" clip-rule="evenodd" fill="#D2D3D4" d="M668.4,1534.9c0,0,7.3,5,44,5c109.1,0,359.7,0,495.1,0c32.6,0,44-5.1,44-5.1v-4c0,0-0.1,3.5-44,3.5c-135.3,0-385.9,0-495.1,0c-44.1,0-44-3.5-44-3.5V1534.9z"/></g></g></svg>